<?xml version="1.0" standalone="no"?>
<!DOCTYPE svg PUBLIC "-//W3C//DTD SVG 20010904//EN"
 "http://www.w3.org/TR/2001/REC-SVG-20010904/DTD/svg10.dtd">
<svg version="1.0" xmlns="http://www.w3.org/2000/svg"
 width="260.000000pt" height="260.000000pt" viewBox="0 0 260.000000 260.000000"
 preserveAspectRatio="xMidYMid meet">
<metadata>
Created by potrace 1.14, written by Peter Selinger 2001-2017
</metadata>
<g transform="translate(0.000000,260.000000) scale(0.100000,-0.100000)"
fill="#000000" stroke="none">
<path d="M327 1680 c-78 -28 -125 -59 -174 -114 -183 -208 -106 -535 149 -636
78 -31 220 -35 278 -8 19 9 45 19 56 23 45 12 142 117 176 190 30 64 33 78 33
166 0 90 -3 100 -38 172 -40 81 -103 147 -173 181 -22 10 -47 22 -57 27 -9 5
-56 12 -105 14 -72 5 -97 2 -145 -15z"/>
<path d="M1170 1678 c-252 -94 -347 -385 -198 -605 29 -44 131 -133 151 -133
7 0 25 -7 42 -16 40 -21 152 -29 215 -15 193 42 323 206 315 401 -3 88 -6 101
-35 162 -41 89 -123 164 -220 202 -69 28 -201 29 -270 4z"/>
<path d="M2026 1679 c-209 -71 -322 -291 -255 -498 37 -116 104 -191 219 -245
58 -27 75 -31 155 -31 105 0 170 20 242 75 107 80 158 184 158 320 0 161 -77
285 -221 356 -65 33 -86 38 -157 40 -62 2 -97 -2 -141 -17z"/>
</g>
</svg>
